<svg width="35" height="36" viewBox="0 0 35 36" fill="none" xmlns="http://www.w3.org/2000/svg">
<path d="M34.6091 16.3868C34.5224 15.5021 33.7764 14.8429 32.8917 14.8429H19.7948C18.8407 14.8429 18.0601 15.6235 18.0601 16.5776V19.5439C18.0601 20.498 18.8407 21.2786 19.7948 21.2786H27.6183C27.4274 22.8745 26.3866 25.2858 24.0795 26.899C22.605 27.9225 20.6448 28.6337 18.0601 28.6337C17.9387 28.6337 17.8346 28.6337 17.7131 28.6164C13.2897 28.4776 9.54277 25.5113 8.1897 21.4347C7.82542 20.3419 7.61725 19.197 7.61725 18C7.61725 16.8031 7.82542 15.6408 8.17236 14.5653C8.27644 14.2531 8.39787 13.9409 8.53664 13.6286C10.1326 10.0378 13.6193 7.50512 17.7131 7.3837C17.8172 7.36635 17.9387 7.36635 18.0601 7.36635C20.5407 7.36635 22.3968 8.18164 23.6978 9.08368C24.3744 9.55205 25.2764 9.44797 25.8662 8.87552L28.2774 6.51635C29.0407 5.77043 28.9713 4.50408 28.104 3.87959C25.3458 1.85 21.9805 0.653076 18.0601 0.653076C17.9387 0.653076 17.8346 0.653094 17.7131 0.67044C11.0693 0.791869 5.36215 4.64289 2.56929 10.2113C1.3897 12.5705 0.713165 15.2072 0.713165 18C0.713165 20.7929 1.3897 23.4296 2.56929 25.7888H2.58664C5.3795 31.3572 11.0866 35.2082 17.7131 35.3296C17.8346 35.347 17.9387 35.347 18.0601 35.347C22.7438 35.347 26.6815 33.8031 29.5438 31.149C32.8223 28.1133 34.7132 23.6725 34.7132 18.3817C34.7132 17.6357 34.6785 16.9939 34.6091 16.3868Z" fill="black"/>
</svg>
