<svg width="14" height="14" viewBox="0 0 14 14" fill="currentColor" xmlns="http://www.w3.org/2000/svg">
<path d="M4.77841 1.88517C5.45522 -0.197844 8.40213 -0.197844 9.07894 1.88517C9.38162 2.81672 10.2497 3.44743 11.2292 3.44743C13.4194 3.44743 14.3301 6.2501 12.5581 7.53747C11.7657 8.1132 11.4341 9.13371 11.7368 10.0653C12.4136 12.1483 10.0295 13.8804 8.25761 12.593C7.46518 12.0173 6.39216 12.0173 5.59974 12.593C3.82782 13.8804 1.44372 12.1483 2.12053 10.0653C2.42321 9.13371 2.09163 8.1132 1.29921 7.53747C-0.472709 6.2501 0.437935 3.44743 2.62814 3.44743C3.60763 3.44743 4.47573 2.81672 4.77841 1.88517Z"/>
</svg>
