<svg width="35" height="34" viewBox="0 0 35 34" fill="none" xmlns="http://www.w3.org/2000/svg">
<path fill-rule="evenodd" clip-rule="evenodd" d="M3.1032 2.39001C0.713196 4.78002 0.713196 8.62668 0.713196 16.32L0.713196 17.68C0.713196 25.3733 0.713196 29.22 3.1032 31.61C5.49321 34 9.33988 34 17.0332 34H18.3932C26.0865 34 29.9332 34 32.3232 31.61C34.7132 29.22 34.7132 25.3733 34.7132 17.68V16.32C34.7132 8.62668 34.7132 4.78002 32.3232 2.39001C29.9332 0 26.0865 0 18.3932 0L17.0332 0C9.33987 0 5.49321 0 3.1032 2.39001ZM6.45075 10.3417C6.63491 19.1817 11.0549 24.4942 18.804 24.4942H19.2433V19.4367C22.0908 19.72 24.244 21.8026 25.1081 24.4942H29.1316C28.0266 20.4709 25.1223 18.2467 23.3089 17.3967C25.1223 16.3484 27.6723 13.7984 28.2815 10.3417H24.6263C23.833 13.1467 21.4816 15.6967 19.2433 15.9375L19.2433 10.3417H15.5882V20.145C13.3215 19.5784 10.4599 16.8301 10.3324 10.3417L6.45075 10.3417Z" fill="black"/>
</svg>
