<svg width="24" height="24" viewBox="0 0 24 24" fill="none" xmlns="http://www.w3.org/2000/svg">
<path fill-rule="evenodd" clip-rule="evenodd" d="M16.243 7.75737C16.6335 8.1479 16.6335 8.78106 16.243 9.17158L13.4146 12L16.243 14.8284C16.6335 15.219 16.6335 15.8521 16.243 16.2427C15.8525 16.6332 15.2193 16.6332 14.8288 16.2427L12.0004 13.4142L9.17195 16.2427C8.78143 16.6332 8.14826 16.6332 7.75774 16.2427C7.36721 15.8521 7.36721 15.219 7.75774 14.8284L10.5862 12L7.75774 9.17159C7.36721 8.78106 7.36721 8.1479 7.75774 7.75737C8.14826 7.36685 8.78143 7.36685 9.17195 7.75737L12.0004 10.5858L14.8288 7.75737C15.2193 7.36685 15.8525 7.36685 16.243 7.75737Z" fill="black"/>
<rect x="0.5" y="0.5" width="23" height="23" rx="7.5" stroke="black"/>
</svg>
